HIERARCHY
ROOT Pelvis
{
	OFFSET -0.001795 -0.223333 0.028219
	CHANNELS 6 Xposition Yposition Zposition Zrotation Yrotation Xrotation 
	JOINT Left_hip
	{
		OFFSET 0.069520 -0.091406 -0.006815
		CHANNELS 3 Zrotation Yrotation Xrotation
		JOINT Left_knee
		{
			OFFSET 0.034277 -0.375199 -0.004496
			CHANNELS 3 Zrotation Yrotation Xrotation
			JOINT Left_ankle
			{
				OFFSET -0.013596 -0.397960 -0.043693
				CHANNELS 3 Zrotation Yrotation Xrotation
				JOINT Left_foot
				{
					OFFSET 0.026358 -0.055791 0.119288
					CHANNELS 3 Zrotation Yrotation Xrotation
					End Site
					{
						OFFSET 0.000000 0.000000 0.000000
					}
				}
			}
		}
	}
	JOINT Right_hip
	{
		OFFSET -0.067670 -0.090522 -0.004320
		CHANNELS 3 Zrotation Yrotation Xrotation
		JOINT Right_knee
		{
			OFFSET -0.038290 -0.382569 -0.008850
			CHANNELS 3 Zrotation Yrotation Xrotation
			JOINT Right_ankle
			{
				OFFSET 0.015774 -0.398415 -0.042312
				CHANNELS 3 Zrotation Yrotation Xrotation
				JOINT Right_foot
				{
					OFFSET -0.025372 -0.048144 0.123348
					CHANNELS 3 Zrotation Yrotation Xrotation
					End Site
					{
						OFFSET 0.000000 0.000000 0.000000
					}
				}
			}
		}
	}
	JOINT Spine1
	{
		OFFSET -0.002533 0.108963 -0.026696
		CHANNELS 3 Zrotation Yrotation Xrotation
		JOINT Spine2
		{
			OFFSET 0.005487 0.135180 0.001092
			CHANNELS 3 Zrotation Yrotation Xrotation
			JOINT Spine3
			{
				OFFSET 0.001457 0.052922 0.025425
				CHANNELS 3 Zrotation Yrotation Xrotation
				JOINT Neck
				{
					OFFSET -0.002778 0.213870 -0.042857
					CHANNELS 3 Zrotation Yrotation Xrotation
					JOINT Head
					{
						OFFSET 0.005152 0.064970 0.051349
						CHANNELS 3 Zrotation Yrotation Xrotation
						End Site
						{
							OFFSET 0.000000 0.000000 0.000000
						}
					}
				}
				JOINT Left_collar
				{
					OFFSET 0.078845 0.121749 -0.034090
					CHANNELS 3 Zrotation Yrotation Xrotation
					JOINT Left_shoulder
					{
						OFFSET 0.090977 0.030469 -0.008868
						CHANNELS 3 Zrotation Yrotation Xrotation
						JOINT Left_elbow
						{
							OFFSET 0.259612 -0.012772 -0.027456
							CHANNELS 3 Zrotation Yrotation Xrotation
							JOINT Left_wrist
							{
								OFFSET 0.249234 0.008986 -0.001171
								CHANNELS 3 Zrotation Yrotation Xrotation
								JOINT Left_palm
								{
									OFFSET 0.084042 -0.008162 -0.014945
									CHANNELS 3 Zrotation Yrotation Xrotation
									End Site
									{
										OFFSET 0.000000 0.000000 0.000000
									}
								}
							}
						}
					}
				}
				JOINT Right_collar
				{
					OFFSET -0.081759 0.118833 -0.038615
					CHANNELS 3 Zrotation Yrotation Xrotation
					JOINT Right_shoulder
					{
						OFFSET -0.096012 0.032551 -0.009143
						CHANNELS 3 Zrotation Yrotation Xrotation
						JOINT Right_elbow
						{
							OFFSET -0.253742 -0.013329 -0.021401
							CHANNELS 3 Zrotation Yrotation Xrotation
							JOINT Right_wrist
							{
								OFFSET -0.255298 0.007772 -0.005559
								CHANNELS 3 Zrotation Yrotation Xrotation
								JOINT Right_palm
								{
									OFFSET -0.084622 -0.006117 -0.010315
									CHANNELS 3 Zrotation Yrotation Xrotation
									End Site
									{
										OFFSET 0.000000 0.000000 0.000000
									}
								}
							}
						}
					}
				}
			}
		}
	}
}
MOTION
Frames: 10
Frame Time: 0.016667
0.000329 0.877939 0.026865 -1.353176 1.647966 -40.604034 8.186230 6.433996 25.889009 -5.647218 -6.752417 30.756374 -1.723785 9.892121 -15.431726 -0.658565 0.000524 -0.705252 -16.822062 2.786820 16.375311 1.209498 5.487929 39.833988 3.921213 -10.511027 -10.618574 -2.098830 1.668221 -0.322308 0.843312 0.164598 -7.123736 6.121872 0.251686 -10.106552 4.349579 -1.958209 5.414871 1.551313 -1.975323 0.187154 4.216116 -11.598676 -6.061716 2.527224 4.744770 -11.324043 7.635753 -27.232738 -47.602367 124.747498 -37.704227 -91.820908 -28.045938 -3.631375 1.239605 0.000000 0.000000 0.000000 5.371798 -8.166079 -10.669358 26.963314 14.557320 -26.210283 -112.854759 36.152130 -92.389107 18.932089 27.503965 -40.366062 0.000000 0.000000 0.000000 
0.002175 0.879729 0.026156 -1.544908 1.364554 -40.844425 8.152379 6.007557 26.491085 -5.720910 -6.592027 29.953039 -0.200681 9.723578 -13.501038 -0.895349 0.350552 -1.317036 -15.802323 3.707096 16.479647 0.995532 5.492065 39.995304 3.309237 -10.823030 -9.313365 -2.057811 1.662634 -0.009719 0.023467 0.393680 -5.967700 5.744050 0.192168 -11.365344 4.367306 -1.634095 6.226958 1.521021 -1.064356 -0.073953 4.417120 -11.103019 -7.015749 2.967919 5.582051 -12.668358 12.263436 -28.816061 -52.745472 123.698174 -37.086437 -89.807335 -27.607210 -1.707528 2.398341 0.000000 0.000000 0.000000 5.391706 -9.674534 -10.459152 26.960712 14.630302 -24.821056 -111.219765 37.825352 -91.641212 18.757452 29.343813 -41.686039 0.000000 0.000000 0.000000 
0.004426 0.881005 0.025595 -1.787302 1.096763 -41.004368 8.065700 5.632151 26.951302 -5.677691 -6.567514 29.254307 0.959478 9.526341 -11.801183 -1.104037 0.600323 -1.841512 -15.087074 4.418428 16.362354 1.098939 5.375480 40.386311 2.696358 -11.194949 -8.054885 -1.978037 1.702308 0.227245 -0.693272 0.501510 -4.820710 5.452583 0.289495 -12.444210 4.468015 -1.317490 7.012774 1.713056 0.025578 -0.365736 4.608372 -10.696158 -7.635593 3.435526 6.261790 -13.858758 16.484058 -30.051233 -57.713024 122.846695 -36.558022 -88.110825 -27.479422 0.116702 3.732618 0.000000 0.000000 0.000000 5.433806 -10.903581 -10.625496 27.039473 14.701226 -23.604343 -109.653107 39.239071 -90.730667 18.271063 30.790016 -43.027782 0.000000 0.000000 0.000000 
0.007158 0.881554 0.025253 -2.133023 0.861549 -41.004086 7.880315 5.358568 27.128689 -5.395433 -6.811429 28.763729 1.403165 9.349400 -10.554077 -1.250517 0.653232 -2.189014 -14.987511 4.715837 15.774449 1.833184 5.009220 41.233276 2.086846 -11.701641 -6.892630 -1.820560 1.832720 0.313210 -1.213749 0.346222 -3.685325 5.327974 0.713294 -13.164550 4.729583 -1.017668 7.746942 2.350881 1.476266 -0.707403 4.794738 -10.472355 -7.592212 3.985541 6.615271 -14.746957 19.620785 -31.084333 -62.063618 122.336838 -36.251080 -87.002090 -28.006107 1.767438 5.384726 0.000000 0.000000 0.000000 5.536981 -11.572636 -11.547890 27.278643 14.765616 -22.733055 -108.305634 40.150059 -89.597305 17.231829 31.441685 -44.376755 0.000000 0.000000 0.000000 
0.010027 0.882404 0.024771 -2.430238 0.626272 -41.060333 7.649181 5.274149 27.368006 -4.958189 -7.155868 28.294533 1.519467 9.279012 -9.730412 -1.340836 0.593885 -2.359083 -15.176393 4.904377 15.211418 2.683043 4.529941 42.016289 1.725426 -12.107970 -5.681934 -1.643794 2.067333 0.368097 -1.559800 0.230323 -2.530358 5.373402 1.222282 -13.567409 4.925421 -0.813108 8.459108 2.961832 2.820742 -1.233036 4.963663 -10.611610 -7.517653 4.472043 6.741002 -15.366656 22.126221 -31.885777 -65.479919 121.793198 -35.992599 -86.004021 -28.920559 3.069868 6.866630 0.000000 0.000000 0.000000 5.723507 -11.674979 -12.643235 27.566410 14.732360 -22.341543 -107.320572 40.510487 -88.376076 16.156124 31.754087 -45.550697 0.000000 0.000000 0.000000 
0.012537 0.884485 0.023887 -2.525184 0.356727 -41.390812 7.424761 5.468184 28.012627 -4.451799 -7.432499 27.662039 1.697211 9.380032 -9.303160 -1.382851 0.506306 -2.351965 -15.325468 5.293986 15.174500 3.145018 4.098708 42.226089 1.866441 -12.187669 -4.285652 -1.505500 2.419208 0.511653 -1.741032 0.457246 -1.328818 5.597773 1.572377 -13.692592 4.827374 -0.776770 9.176950 3.074645 3.586668 -2.105965 5.102808 -11.290166 -8.044746 4.743013 6.734927 -15.751151 24.441944 -32.367435 -67.647179 120.862556 -35.589703 -84.659149 -29.985970 3.821858 7.713409 0.000000 0.000000 0.000000 6.001858 -11.205653 -13.323544 27.791313 14.514841 -22.564980 -106.846413 40.281136 -87.201241 15.535601 32.205448 -46.383385 0.000000 0.000000 0.000000 
0.014903 0.886803 0.022773 -2.561369 0.198315 -41.742428 7.251218 5.733026 28.738949 -4.014966 -7.698232 26.905861 1.825391 9.463707 -9.097355 -1.296562 0.387794 -2.269613 -15.467739 5.638914 15.291645 3.340183 3.745563 42.214558 2.267727 -12.104139 -2.721483 -1.424309 2.687075 0.567332 -1.830847 0.705588 -0.444281 5.944419 1.684348 -13.480183 4.651212 -0.797915 9.680797 2.982224 3.945743 -2.709831 5.153018 -12.216208 -8.492807 4.930189 6.681477 -15.931893 26.206421 -32.531956 -68.865074 119.709099 -35.335266 -83.203041 -30.717613 4.250258 8.110412 0.000000 0.000000 0.000000 6.211052 -10.644588 -13.726634 27.947441 14.257392 -22.897930 -106.711403 39.857109 -86.263611 15.168582 32.488228 -46.764599 0.000000 0.000000 0.000000 
0.017389 0.888411 0.021756 -2.685400 0.295999 -41.861385 7.166748 5.857847 29.224609 -3.785495 -8.014303 26.065929 1.790912 9.341357 -8.939312 -1.001731 0.235237 -2.214477 -15.640011 5.691302 15.191402 3.383957 3.492339 42.330780 2.680212 -12.010407 -1.004247 -1.420491 2.670082 0.357860 -1.915588 0.656094 -0.239036 6.352659 1.476388 -12.873064 4.615186 -0.771532 9.751131 2.981874 4.076660 -2.416859 5.032214 -13.100075 -8.172867 5.164038 6.667568 -15.939528 27.079565 -32.357197 -69.446831 118.466103 -35.533169 -81.842087 -30.613405 4.583067 8.243000 0.000000 0.000000 0.000000 6.200474 -10.472861 -13.998129 28.024965 14.100698 -22.834827 -106.715210 39.627007 -85.730484 14.858606 32.287991 -46.579891 0.000000 0.000000 0.000000 
0.019868 0.888973 0.020795 -2.878066 0.496873 -41.814571 7.212567 5.875855 29.514889 -3.819614 -8.380323 25.253683 1.745926 9.221734 -8.890528 -0.683359 0.063136 -2.202627 -15.786492 5.610671 14.918787 3.481093 3.411308 42.559223 3.007664 -11.869588 0.690007 -1.411063 2.574595 0.047177 -2.005619 0.405244 -0.276281 6.724133 1.173896 -12.198998 4.634626 -0.766212 9.708647 3.177258 3.943637 -1.612111 4.838757 -14.007930 -7.492188 5.331431 6.655713 -15.907691 27.467047 -31.970259 -69.651749 117.257965 -35.811069 -80.691788 -30.275465 4.920475 8.173977 0.000000 0.000000 0.000000 6.128652 -10.532058 -14.090401 27.975586 14.007614 -22.654676 -106.893433 39.578823 -85.625572 14.773782 31.831583 -46.049244 0.000000 0.000000 0.000000 
0.022274 0.888848 0.019851 -3.119235 0.648308 -41.668320 7.431528 5.821012 29.654610 -4.175235 -8.797407 24.582161 1.843305 9.313067 -9.012755 -0.526298 -0.113626 -2.248996 -15.851229 5.557335 14.517894 3.837840 3.573291 42.884151 3.155347 -11.637348 2.184749 -1.314228 2.607488 -0.200671 -2.110015 0.050877 -0.119411 6.966969 1.008405 -11.781828 4.624746 -0.849610 9.874052 3.664302 3.505770 -0.684050 4.683642 -15.008008 -6.863645 5.319362 6.609276 -15.970144 27.781908 -31.478954 -69.747040 116.242233 -35.805737 -79.900162 -30.305626 5.365992 7.958924 0.000000 0.000000 0.000000 6.150875 -10.662282 -13.953977 27.752634 13.941845 -22.636274 -107.288170 39.697773 -85.977821 15.078376 31.339895 -45.399601 0.000000 0.000000 0.000000 
